<svg width="33" height="32" viewBox="0 0 33 32" fill="none" xmlns="http://www.w3.org/2000/svg">
<path d="M25.5 22V8.00003C25.5017 7.6056 25.4252 7.21475 25.275 6.85002C25.1248 6.4853 24.9039 6.15392 24.625 5.87502C24.3461 5.59611 24.0147 5.3752 23.65 5.22502C23.2853 5.07484 22.8944 4.99837 22.5 5.00003H5.5" stroke="#B5B5B5" stroke-width="2" stroke-linecap="round" stroke-linejoin="round"/>
<path d="M13.5 13H21.5" stroke="#B5B5B5" stroke-width="2" stroke-linecap="round" stroke-linejoin="round"/>
<path d="M13.5 17H21.5" stroke="#B5B5B5" stroke-width="2" stroke-linecap="round" stroke-linejoin="round"/>
<path d="M3.2625 10.0004C2.93867 9.63778 2.70781 9.20194 2.58977 8.73036C2.47174 8.25877 2.47007 7.76557 2.58492 7.2932C2.69977 6.82083 2.92769 6.38345 3.24907 6.0187C3.57044 5.65395 3.97564 5.37276 4.42979 5.19934C4.88394 5.02592 5.37342 4.96546 5.85612 5.02317C6.33881 5.08087 6.80025 5.25501 7.20072 5.53061C7.60118 5.8062 7.92868 6.17498 8.15501 6.60521C8.38135 7.03543 8.49974 7.51422 8.5 8.00035V24.0004C8.50026 24.4865 8.61865 24.9653 8.84499 25.3955C9.07132 25.8257 9.39882 26.1945 9.79928 26.4701C10.1997 26.7457 10.6612 26.9198 11.1439 26.9775C11.6266 27.0352 12.1161 26.9748 12.5702 26.8014C13.0244 26.6279 13.4296 26.3468 13.7509 25.982C14.0723 25.6173 14.3002 25.1799 14.4151 24.7075C14.5299 24.2351 14.5283 23.7419 14.4102 23.2703C14.2922 22.7988 14.0613 22.3629 13.7375 22.0004H27.7375C28.1237 22.4321 28.3766 22.9664 28.4657 23.5388C28.5548 24.1111 28.4764 24.697 28.2398 25.2257C28.0031 25.7545 27.6185 26.2034 27.1324 26.5183C26.6462 26.8332 26.0792 27.0006 25.5 27.0004H11.5" stroke="#B5B5B5" stroke-width="2" stroke-linecap="round" stroke-linejoin="round"/>
</svg>
