<svg width="16" height="16" viewBox="0 0 16 16" fill="none" xmlns="http://www.w3.org/2000/svg">
<path d="M8 14C11.3137 14 14 11.3137 14 8C14 4.68629 11.3137 2 8 2C4.68629 2 2 4.68629 2 8C2 11.3137 4.68629 14 8 14Z" stroke="#D10429" stroke-linecap="round" stroke-linejoin="round"/>
<path d="M5.75 8.75C6.16421 8.75 6.5 8.41421 6.5 8C6.5 7.58579 6.16421 7.25 5.75 7.25C5.33579 7.25 5 7.58579 5 8C5 8.41421 5.33579 8.75 5.75 8.75Z" fill="#D10429"/>
<path d="M10.25 8.75C10.6642 8.75 11 8.41421 11 8C11 7.58579 10.6642 7.25 10.25 7.25C9.83579 7.25 9.5 7.58579 9.5 8C9.5 8.41421 9.83579 8.75 10.25 8.75Z" fill="#D10429"/>
<path d="M9.65625 10.5C9.16539 10.826 8.58925 10.9999 8 10.9999C7.41075 10.9999 6.83461 10.826 6.34375 10.5" stroke="#D10429" stroke-linecap="round" stroke-linejoin="round"/>
<path d="M8 2C7 3.25 7 4.5 7 4.5C7 4.76522 7.10536 5.01957 7.29289 5.20711C7.48043 5.39464 7.73478 5.5 8 5.5C8.26522 5.5 8.51957 5.39464 8.70711 5.20711C8.89464 5.01957 9 4.76522 9 4.5" stroke="#D10429" stroke-linecap="round" stroke-linejoin="round"/>
</svg>
