<svg width="16" height="16" viewBox="0 0 16 16" fill="none" xmlns="http://www.w3.org/2000/svg">
<path d="M5.99998 7.83301C5.77897 7.83301 5.567 7.92081 5.41072 8.07709C5.25444 8.23337 5.16665 8.44533 5.16665 8.66634C5.16665 8.88736 5.25444 9.09932 5.41072 9.2556C5.567 9.41188 5.77897 9.49967 5.99998 9.49967C6.10941 9.49967 6.21778 9.47812 6.31888 9.43624C6.41999 9.39436 6.51185 9.33298 6.58924 9.2556C6.66662 9.17822 6.728 9.08635 6.76988 8.98524C6.81176 8.88414 6.83331 8.77578 6.83331 8.66634C6.83331 8.55691 6.81176 8.44854 6.76988 8.34744C6.728 8.24633 6.66662 8.15447 6.58924 8.07709C6.51185 7.9997 6.41999 7.93832 6.31888 7.89644C6.21778 7.85456 6.10941 7.83301 5.99998 7.83301ZM9.99998 7.83301C9.77897 7.83301 9.567 7.92081 9.41072 8.07709C9.25444 8.23337 9.16665 8.44533 9.16665 8.66634C9.16665 8.88736 9.25444 9.09932 9.41072 9.2556C9.567 9.41188 9.77897 9.49967 9.99998 9.49967C10.221 9.49967 10.433 9.41188 10.5892 9.2556C10.7455 9.09932 10.8333 8.88736 10.8333 8.66634C10.8333 8.44533 10.7455 8.23337 10.5892 8.07709C10.433 7.92081 10.221 7.83301 9.99998 7.83301ZM7.99998 1.33301C7.1245 1.33301 6.25759 1.50545 5.44876 1.84048C4.63992 2.17551 3.90499 2.66657 3.28593 3.28563C2.03569 4.53587 1.33331 6.23156 1.33331 7.99967C1.33331 9.76779 2.03569 11.4635 3.28593 12.7137C3.90499 13.3328 4.63992 13.8238 5.44876 14.1589C6.25759 14.4939 7.1245 14.6663 7.99998 14.6663C9.76809 14.6663 11.4638 13.964 12.714 12.7137C13.9643 11.4635 14.6666 9.76779 14.6666 7.99967C14.6666 7.1242 14.4942 6.25729 14.1592 5.44845C13.8241 4.63961 13.3331 3.90469 12.714 3.28563C12.095 2.66657 11.36 2.17551 10.5512 1.84048C9.74237 1.50545 8.87546 1.33301 7.99998 1.33301ZM7.99998 13.333C5.05998 13.333 2.66665 10.9397 2.66665 7.99967C2.66665 7.80634 2.66665 7.61301 2.69998 7.42634C4.27331 6.72634 5.51998 5.43967 6.17331 3.84634C6.93549 4.92793 8.00302 5.75753 9.23932 6.22902C10.4756 6.7005 11.8245 6.79242 13.1133 6.49301C13.2533 6.96634 13.3333 7.47301 13.3333 7.99967C13.3333 10.9397 10.94 13.333 7.99998 13.333Z" fill="#757575"/>
</svg>
