<svg width="33" height="32" viewBox="0 0 33 32" fill="none" xmlns="http://www.w3.org/2000/svg">
<g clip-path="url(#clip0_328_16077)">
<path d="M16.5 29.0665C22.1213 29.0665 26.8733 24.6125 28.4293 19.4998C28.7786 18.3498 31.1666 18.3498 31.1666 15.8665C31.1666 13.3825 28.756 13.2398 28.366 12.0318C26.748 7.02317 22.0466 2.6665 16.5 2.6665C10.95 2.6665 6.24665 7.0265 4.63131 12.0398C4.24331 13.2465 1.83331 13.3398 1.83331 15.8665C1.83331 18.3932 4.22798 18.3932 4.58998 19.5612C6.16465 24.6425 10.9013 29.0665 16.5 29.0665Z" stroke="#B5B5B5" stroke-width="2"/>
<path d="M28.366 12.0318C26.748 7.02317 22.0467 2.6665 16.5 2.6665" stroke="#B5B5B5" stroke-width="2" stroke-linecap="round"/>
<path d="M13.2333 14.3999C13.2333 14.9505 13.084 15.4339 12.86 15.7705C12.634 16.1092 12.3587 16.2665 12.1 16.2665C11.8413 16.2665 11.5667 16.1092 11.34 15.7705C11.116 15.4339 10.9667 14.9505 10.9667 14.3999C10.9667 13.8485 11.116 13.3652 11.34 13.0292C11.5667 12.6905 11.8413 12.5332 12.1 12.5332C12.3593 12.5332 12.634 12.6905 12.86 13.0292C13.084 13.3652 13.2333 13.8492 13.2333 14.3999ZM22.0333 14.3999C22.0333 14.9505 21.884 15.4339 21.66 15.7705C21.434 16.1092 21.1587 16.2665 20.9 16.2665C20.6413 16.2665 20.366 16.1092 20.14 15.7705C19.916 15.4339 19.7667 14.9505 19.7667 14.3999C19.7667 13.8485 19.916 13.3652 20.14 13.0292C20.366 12.6905 20.6413 12.5332 20.9 12.5332C21.1587 12.5332 21.434 12.6905 21.66 13.0292C21.884 13.3652 22.0333 13.8492 22.0333 14.3999Z" fill="#B5B5B5" stroke="#B5B5B5" stroke-width="0.5"/>
<path d="M12.832 21.1666C14.1186 22.0333 15.344 22.4666 16.506 22.4666C17.6673 22.4666 18.8186 22.034 19.9593 21.1693M21.652 4.1333C21.8306 5.42263 21.438 6.36397 20.4726 6.9593C19.508 7.55397 17.94 7.83263 15.7693 7.7953" stroke="#B5B5B5" stroke-width="2" stroke-linecap="round"/>
</g>
<defs>
<clipPath id="clip0_328_16077">
<rect width="32" height="32" fill="white" transform="translate(0.5)"/>
</clipPath>
</defs>
</svg>
