<svg width="33" height="32" viewBox="0 0 33 32" fill="none" xmlns="http://www.w3.org/2000/svg">
<path d="M4.5 11.0179V10.9999C4.49997 9.22201 5.02652 7.48395 6.0132 6.00499C6.99988 4.52602 8.40249 3.37242 10.0441 2.68973C11.6857 2.00704 13.4927 1.82584 15.2371 2.16899C16.9816 2.51215 18.5853 3.36429 19.846 4.61789C20.8379 4.12831 21.9459 3.92247 23.0474 4.02311C24.149 4.12374 25.2013 4.52694 26.0881 5.18814C26.9749 5.84935 27.6616 6.74283 28.0724 7.76987C28.4832 8.7969 28.6021 9.91752 28.416 11.0079C28.6897 11.0333 28.9552 11.1148 29.1959 11.2474C29.4367 11.38 29.6475 11.5608 29.8153 11.7785C29.9831 11.9962 30.1042 12.2461 30.1711 12.5127C30.2379 12.7793 30.2492 13.0568 30.204 13.3279C29.3 18.7659 27.064 22.2079 23.5 23.6559V24.9999C23.5 25.7956 23.1839 26.5586 22.6213 27.1212C22.0587 27.6838 21.2957 27.9999 20.5 27.9999H12.5C11.7044 27.9999 10.9413 27.6838 10.3787 27.1212C9.81607 26.5586 9.5 25.7956 9.5 24.9999V23.6559C5.936 22.2079 3.7 18.7659 2.796 13.3279C2.75237 13.064 2.76213 12.794 2.82469 12.5339C2.88725 12.2739 3.00135 12.029 3.16023 11.8138C3.31911 11.5986 3.51954 11.4174 3.74967 11.2811C3.9798 11.1447 4.23494 11.0559 4.5 11.0199V11.0179ZM6.5 10.9999H8.5C8.5 9.67382 9.02679 8.40204 9.96447 7.46436C10.9022 6.52668 12.1739 5.99989 13.5 5.99989C14.8261 5.99989 16.0979 6.52668 17.0355 7.46436C17.9732 8.40204 18.5 9.67382 18.5 10.9999H20.5C20.5 9.14338 19.7625 7.3629 18.4498 6.05015C17.137 4.73739 15.3565 3.99989 13.5 3.99989C11.6435 3.99989 9.86301 4.73739 8.55025 6.05015C7.2375 7.3629 6.5 9.14338 6.5 10.9999ZM10.5 10.9999H16.5C16.5 10.2042 16.1839 9.44119 15.6213 8.87858C15.0587 8.31597 14.2957 7.9999 13.5 7.9999C12.7044 7.9999 11.9413 8.31597 11.3787 8.87858C10.8161 9.44119 10.5 10.2042 10.5 10.9999ZM24.232 10.9999H26.374C26.525 10.4088 26.5391 9.79112 26.4152 9.1938C26.2913 8.59648 26.0326 8.03532 25.659 7.55309C25.2854 7.07086 24.8066 6.68029 24.2591 6.41112C23.7117 6.14196 23.11 6.00131 22.5 5.99989C22.02 5.99989 21.564 6.08389 21.14 6.23789C21.494 6.80589 21.786 7.4179 22.01 8.0599C22.3909 7.96542 22.7912 7.98487 23.1612 8.11584C23.5312 8.24682 23.8545 8.48355 24.0912 8.79665C24.3278 9.10976 24.4673 9.48546 24.4923 9.87714C24.5174 10.2688 24.4269 10.6592 24.232 10.9999ZM21.5 23.9999H11.5V24.9999C11.5 25.2651 11.6054 25.5195 11.7929 25.707C11.9804 25.8946 12.2348 25.9999 12.5 25.9999H20.5C20.7652 25.9999 21.0196 25.8946 21.2071 25.707C21.3946 25.5195 21.5 25.2651 21.5 24.9999V23.9999ZM10.796 21.9999H22.204C25.376 20.9799 27.384 18.0959 28.232 12.9999H4.768C5.616 18.0959 7.624 20.9799 10.796 21.9999Z" fill="#68389A"/>
</svg>
