<svg width="33" height="32" viewBox="0 0 33 32" fill="none" xmlns="http://www.w3.org/2000/svg">
<path d="M19.5 26.0003V20.0003C19.5 19.7351 19.3946 19.4807 19.2071 19.2932C19.0196 19.1056 18.7652 19.0003 18.5 19.0003H14.5C14.2348 19.0003 13.9804 19.1056 13.7929 19.2932C13.6054 19.4807 13.5 19.7351 13.5 20.0003V26.0003C13.5 26.2655 13.3946 26.5198 13.2071 26.7074C13.0196 26.8949 12.7652 27.0003 12.5 27.0003H6.5C6.23478 27.0003 5.98043 26.8949 5.79289 26.7074C5.60536 26.5198 5.5 26.2655 5.5 26.0003V14.4378C5.50224 14.2994 5.53215 14.1628 5.58796 14.0362C5.64378 13.9095 5.72437 13.7953 5.825 13.7003L15.825 4.61277C16.0093 4.44412 16.2501 4.35059 16.5 4.35059C16.7499 4.35059 16.9907 4.44412 17.175 4.61277L27.175 13.7003C27.2756 13.7953 27.3562 13.9095 27.412 14.0362C27.4679 14.1628 27.4978 14.2994 27.5 14.4378V26.0003C27.5 26.2655 27.3946 26.5198 27.2071 26.7074C27.0196 26.8949 26.7652 27.0003 26.5 27.0003H20.5C20.2348 27.0003 19.9804 26.8949 19.7929 26.7074C19.6054 26.5198 19.5 26.2655 19.5 26.0003Z" stroke="#D10429" stroke-width="2" stroke-linecap="round" stroke-linejoin="round"/>
</svg>
