<svg width="17" height="16" viewBox="0 0 17 16" fill="none" xmlns="http://www.w3.org/2000/svg">
<path d="M8.49998 1.33301C4.83331 1.33301 1.83331 4.33301 1.83331 7.99967V14.6663H15.1666V7.99967C15.1666 4.33301 12.1666 1.33301 8.49998 1.33301ZM8.49998 2.66634C10.4333 2.66634 12.1266 3.70634 13.06 5.25301C12.7733 5.29967 12.4733 5.33301 12.1666 5.33301C10.2333 5.33301 8.53998 4.29301 7.60665 2.74634C7.89331 2.69967 8.19331 2.66634 8.49998 2.66634ZM5.88665 3.35301C5.46599 4.60671 4.59704 5.66084 3.44665 6.31301C3.86731 5.0593 4.73625 4.00517 5.88665 3.35301ZM3.16665 7.90634C4.89998 7.25301 6.29331 5.91301 6.99331 4.20634C7.61859 4.97509 8.40738 5.59478 9.30229 6.02032C10.1972 6.44586 11.1757 6.66656 12.1666 6.66634C12.6666 6.66634 13.1466 6.60634 13.6133 6.50634C13.7533 6.97967 13.8333 7.47967 13.8333 7.99967C13.8333 10.9397 11.44 13.333 8.49998 13.333C5.55998 13.333 3.16665 10.9397 3.16665 7.99967V7.90634ZM3.16665 13.333V11.9997C3.54665 12.4997 3.99998 12.953 4.49998 13.333H3.16665ZM13.8333 13.333H12.5C13 12.953 13.4533 12.4997 13.8333 11.9997V13.333ZM9.66665 8.66634C9.66665 8.44533 9.75444 8.23337 9.91072 8.07709C10.067 7.92081 10.279 7.83301 10.5 7.83301C10.721 7.83301 10.933 7.92081 11.0892 8.07709C11.2455 8.23337 11.3333 8.44533 11.3333 8.66634C11.3333 8.88736 11.2455 9.09932 11.0892 9.2556C10.933 9.41188 10.721 9.49967 10.5 9.49967C10.279 9.49967 10.067 9.41188 9.91072 9.2556C9.75444 9.09932 9.66665 8.88736 9.66665 8.66634ZM5.66665 8.66634C5.66665 8.44533 5.75444 8.23337 5.91072 8.07709C6.067 7.92081 6.27897 7.83301 6.49998 7.83301C6.72099 7.83301 6.93296 7.92081 7.08924 8.07709C7.24552 8.23337 7.33331 8.44533 7.33331 8.66634C7.33331 8.88736 7.24552 9.09932 7.08924 9.2556C6.93296 9.41188 6.72099 9.49967 6.49998 9.49967C6.27897 9.49967 6.067 9.41188 5.91072 9.2556C5.75444 9.09932 5.66665 8.88736 5.66665 8.66634Z" fill="#757575"/>
</svg>
